# xmcd
#
# Track frame offsets:
#	182
#	17920
#	32395
#	43082
#	59495
#	71370
#	86495
#	101807
#	117282
#	133757
#	146582
#	162895
#	175220
#	192945
#	206682
#	222032
#	236782
#	248632
#	268757
#	279620
#	293882
#	309532
#
# Disc length: 4335 seconds
#
# Revision: 4
# Processed by: cddbd v1.5.2PL0 Copyright (c) Steve Scherf et al.
# Submitted via: EasyCDDAExtractor 15.3.0.1
#
DISCID=4c10ed16
DTITLE=Rocio Durcal - Mis Mejores Canciones
DYEAR=1992
DGENRE=Latin
TTITLE0=Quedate Conmigo Esta Noche
TTITLE1=Me Gustas Mucho
TTITLE2=Cuando Decidas Volver
TTITLE3=No Lastimes Mas
TTITLE4=Que El Mundo Ruede
TTITLE5=La Diferencia
TTITLE6=Jamas Te Dejare
TTITLE7=Luz De Luna
TTITLE8=La Gata Bajo La Lluvia
TTITLE9=Me Nace Del Corazon
TTITLE10=Me Desperto La Realidad
TTITLE11=Mia Un Año
TTITLE12=Con Todo Y Mi Tristeza
TTITLE13=Ya Te Olvide
TTITLE14=Tenias Que Ser Tan Cruel
TTITLE15=Fue Tan Poco Tu Cariño
TTITLE16=Hoy Por Fin
TTITLE17=Como Tu Mujer
TTITLE18=Tu Abandono
TTITLE19=Cuando Yo Quiera Has De Volver
TTITLE20=La Muerte Del Palomo
TTITLE21=No Me Vuelvo A Enamorar
EXTD=All tracks written and produced by Silverbeam\n\nHttp://www.silverbeam.com 
EXTD=YEAR: 1998 ID3G: 86
EXTT0=Placido Domingo
EXTT1=Julia Varady
EXTT2=Alfredo Kraus
EXTT3=Take my love...
EXTT4=No One...
EXTT5=I'm falling in love...
EXTT6=I won't do it...
EXTT7=My call...
EXTT8=Our Song
EXTT9=Life
EXTT10=It hurts to be alone...
EXTT11=I want to be...
EXTT12=A Million Roses...
EXTT13=There are better ones than her...\n-A dúo con Marc Anthony-
EXTT14=In love...
EXTT15=You're playing with fire...
EXTT16=Now, and forever...
EXTT17=Wings of Paper...
EXTT18=What would I do without you?
EXTT19=Written and composed by: Biagio Marini\n\nSonate da chiesa e da camera,
EXTT19=Venise, 1655
EXTT20=Written and composed by: Claudio Monteverdi\n\n
EXTT21=Written and composed by: Claudio Monteverdi\n\nGhirlanda Sacra, Venise,
EXTT21=1625
PLAYORDER=
